inDegrees=no
num_controls=7
num_derivatives=13
num_iterations=115
num_multipliers=7
num_parameters=0
num_slacks=7
num_states=26
objective=0.485250
objective_accelerations=0.004267
objective_balance=0.000673
objective_effort=0.007867
objective_height=0.464094
objective_ligament=0.008349
solver_duration=1382.883401
status=Solve_Succeeded
success=true
DataType=double
version=3
OpenSimVersion=4.5
endheader
time	/jointset/ground_pelvis/pelvis_tilt/value	/jointset/ground_pelvis/pelvis_tx/value	/jointset/ground_pelvis/pelvis_ty/value	/jointset/hip_r/hip_flexion_r/value	/jointset/hip_r/hip_adduction_r/value	/jointset/hip_r/hip_rotation_r/value	/jointset/back/lumbar_extension/value	/jointset/patellofemoral_r/patellar_flexion_r/value	/jointset/knee_r/knee_flexion_r/value	/jointset/knee_r/knee_adduction_r/value	/jointset/knee_r/knee_rotation_r/value	/jointset/ankle_r/ankle_angle_r/value	/jointset/subtalar_r/subtalar_angle_r/value	/jointset/ground_pelvis/pelvis_tilt/speed	/jointset/ground_pelvis/pelvis_tx/speed	/jointset/ground_pelvis/pelvis_ty/speed	/jointset/hip_r/hip_flexion_r/speed	/jointset/hip_r/hip_adduction_r/speed	/jointset/hip_r/hip_rotation_r/speed	/jointset/back/lumbar_extension/speed	/jointset/patellofemoral_r/patellar_flexion_r/speed	/jointset/knee_r/knee_flexion_r/speed	/jointset/knee_r/knee_adduction_r/speed	/jointset/knee_r/knee_rotation_r/speed	/jointset/ankle_r/ankle_angle_r/speed	/jointset/subtalar_r/subtalar_angle_r/speed	/forceset/tau_hip_flexion_r	/forceset/tau_hip_adduction_r	/forceset/tau_hip_rotation_r	/forceset/tau_knee_flexion_r	/forceset/tau_ankle_angle_r	/forceset/tau_subtalar_angle_r	/forceset/tau_lumbar_extension	lambda_cid13_p0	lambda_cid14_p0	lambda_cid14_p1	lambda_cid14_p2	lambda_cid14_p3	lambda_cid14_p4	lambda_cid14_p5	/jointset/ground_pelvis/pelvis_tilt/accel	/jointset/ground_pelvis/pelvis_tx/accel	/jointset/ground_pelvis/pelvis_ty/accel	/jointset/hip_r/hip_flexion_r/accel	/jointset/hip_r/hip_adduction_r/accel	/jointset/hip_r/hip_rotation_r/accel	/jointset/back/lumbar_extension/accel	/jointset/patellofemoral_r/patellar_flexion_r/accel	/jointset/knee_r/knee_flexion_r/accel	/jointset/knee_r/knee_adduction_r/accel	/jointset/knee_r/knee_rotation_r/accel	/jointset/ankle_r/ankle_angle_r/accel	/jointset/subtalar_r/subtalar_angle_r/accel	gamma_cid13_p0	gamma_cid14_p0	gamma_cid14_p1	gamma_cid14_p2	gamma_cid14_p3	gamma_cid14_p4	gamma_cid14_p5
0	0.009904859376073433	0.1225808292441882	0.9364583087315561	0.1934211968871041	-0.07262122002986701	-0.001130115410350068	-0.2903787966825928	0.2311786273363606	0.2311786273363406	-0.1685492279710897	-0.172014463885115	0.089344008118978	0.2562764783089162	0	0	0	0	0	0	0	0	0	0	0	0	0	0.0536194088243226	0.045233135697891	0.05618260348102509	-0.2124661937899715	0.1403154971193872	-0.01813639458250702	0.03467604477975269	-28.16389395098883	-3.95172752866221	-22.35826393678398	19.73761648931558	-20.21653487294929	-654.5711838577448	35.73885785423609	0.4393224824550914	0.06453685693407246	-0.04097081310811646	0.06404015462737528	-0.1027729119786971	-0.2915409166005932	-1.853069137410859	1.133607157497463	1.133607157497664	0.1026087446228499	0.3120645786483275	0.7427026913985982	0.2127181898836418	6.125269747141603e-10	1.300744819330182e-09	1.28807174642882e-08	-3.766230776737379e-10	-2.163004177247894e-09	-7.383262890558417e-10	1.07317402634402e-08
0.01	0.009926071266223567	0.1225851105773045	0.9364563291944835	0.1934231332783252	-0.07262638755825648	-0.001145070003556884	-0.2904709720000641	0.2312337346822397	0.2312337346822164	-0.1685440784180039	-0.1719988086821919	0.08938162945898599	0.2562873060635004	0.00414597051127256	0.0009596041034366999	-0.0003949670339580853	0.0003210467511099734	-0.001044839679975842	-0.002966130068976691	-0.01837044335689745	0.01094404512137937	0.01094404512137872	0.001053235304383638	0.003080408205366728	0.007602044182102152	0.002186291682150167	0.05800139729720291	0.03768133390814089	0.05850954335232932	-0.2221853075036014	0.1518470558531766	-0.01134439973021136	0.03200318942859255	-28.16450764703351	0.3855972510496367	-19.57248103318301	20.34824808428279	-24.14332402942664	-654.9958775722091	41.41050596270304	0.3877733047399015	0.1271723757490072	-0.03861873909100677	0.006202331764751474	-0.1070389247295543	-0.2954310730734325	-1.819338913712953	1.063189459303582	1.06318945930338	0.1101811871406551	0.2984338772426172	0.7806213292170251	0.2246977228540494	4.316392418301971e-10	6.025854561445826e-10	6.277446367816115e-09	1.515018858267551e-09	-7.720188565528624e-10	-5.860343851396598e-10	2.717673220160878e-09
0.02	0.009985850655325944	0.1226020879891945	0.9364504281689605	0.1934262932163374	-0.07264234336918438	-0.001188942301660856	-0.2907449131468813	0.2313959597332864	0.2313959597332859	-0.1685276964591264	-0.1719538684100952	0.08949760445033413	0.2563206193480009	0.007713499793667272	0.002539215754741465	-0.0007842976900650133	0.000244709358700969	-0.002157656508856325	-0.005783540979031309	-0.03635316586910354	0.0214235410365769	0.02142354103657496	0.002246481160543806	0.00585701384120096	0.0156707302682414	0.004497105983234804	0.06238338577014822	0.03012953211839447	0.06083648322340431	-0.2319044212172743	0.1633786145869661	-0.004552404877907718	0.02933033407749313	-28.1663303540874	4.732612078084332	-16.78572867607967	20.95955572825897	-28.10547367430803	-655.2888074704739	47.06079652093426	0.3236342366798174	0.1885383665074263	-0.03984353753787544	-0.01543667407637688	-0.1163683417595873	-0.2617970848160958	-1.775524968472407	1.040697316261196	1.040697316261271	0.1306108549781006	0.2513040647418028	0.8360310722057636	0.2376227136704678	2.507515089462338e-10	-9.557390704101671e-11	-3.258247286559727e-10	3.406660794208839e-09	6.189664641421693e-10	-4.337424812234781e-10	-5.296393823118445e-09
0.03	0.01007961975164027	0.1226364021984597	0.9364406732796311	0.1934275650534705	-0.07266953178226587	-0.001260412769198131	-0.291196262628886	0.2316610914996512	0.2316610914996671	-0.1684991127075915	-0.1718821539381436	0.08969499905554648	0.2563772397109312	0.01106787671421731	0.0042712555547908	-0.001163968029979726	2.334108631911526e-05	-0.003269012840076059	-0.008511376792746748	-0.05380729170875656	0.03156220232328977	0.03156220232328893	0.003452284794986133	0.008497562929773534	0.02372429394273589	0.00680317492592842	0.05831477705971888	0.03083252734799139	0.05903054128897062	-0.2242016019734832	0.1524526666152899	-0.005886808185206994	0.0322034613634419	-28.16934279489625	1.134868595001431	-17.18225560697037	20.09419627328145	-25.24562784382671	-655.4868002963764	46.55975163987443	0.3454731125609929	0.1576813339768351	-0.03662204645016221	-0.02343436327784705	-0.1068662864318912	-0.2784000129827403	-1.713940567800209	0.9943589981535462	0.9943589981536439	0.1128679735038559	0.2721831769140633	0.7774344970401552	0.2235305798884801	5.216360394075598e-10	2.072981070525663e-10	3.545481162294122e-09	3.789334837071337e-09	3.331021408713525e-12	-2.11317042657764e-09	-1.752611528543362e-09
0.04	0.01020775935570707	0.1226864657151691	0.936427203034056	0.1934270337159927	-0.07270750316018543	-0.001359186231540539	-0.2918188702045032	0.2320263915715797	0.2320263915715792	-0.1684590103484769	-0.1717836834060187	0.08997041239389428	0.2564562070823527	0.01458760134754813	0.005689077243606093	-0.001527368939204876	-0.0001159255644160491	-0.004314249476457589	-0.0112441399398037	-0.07060478459190808	0.04145720214109549	0.04145720214109536	0.004550202662485416	0.01120822585829556	0.03127447689598219	0.00896650768141012	0.05424616834944113	0.03153552257762049	0.05722459935506133	-0.2164987827294972	0.1415267186436381	-0.007221211492463751	0.03507658864950142	-28.1734729750464	-2.454116611781584	-17.57847878392318	19.23019304402903	-22.42126839190385	-655.5645200838495	46.03686289943673	0.3567037792362484	0.1256947442603795	-0.03658965139995435	0.0009836502529999547	-0.1031444027919042	-0.2627825514843175	-1.644198377171934	0.9919650224798621	0.9919650224798631	0.1090337015894272	0.2653268327316583	0.7353549279558941	0.2090754762280312	8.018354618966239e-10	5.308099433580915e-10	7.632757712778698e-09	4.140896139870354e-09	-6.536780453129589e-10	-3.830365791504388e-09	2.029476937946251e-09
0.05	0.01037156337548403	0.1227496246889195	0.9364101733805889	0.1934252354497034	-0.07275565363211454	-0.001485067912033659	-0.2926063490525447	0.2324893437012547	0.2324893437012607	-0.1684083557271146	-0.1716581262614609	0.09031931894641103	0.2565562511580217	0.01816591747986971	0.006939255693225731	-0.001876208371503874	-0.0002615266765069164	-0.005310252649943506	-0.0139104688610781	-0.08680030881671771	0.05108101786631301	0.05108101786631324	0.005573394554114644	0.0138794442494792	0.03847232576008179	0.01103397887358434	0.05272227384411219	0.03249326124884645	0.05664629026754361	-0.2142151181648211	0.138455844950969	-0.008224995775576152	0.0363295975433963	-28.17866828148498	-3.53966133754354	-17.96668288330012	19.02044670018909	-21.68913749597919	-655.8038982145744	45.34406582383017	0.3573029782136554	0.1241599866658178	-0.03367886166517447	-0.02500167224034319	-0.09698801666643043	-0.2652985042070112	-1.593628014779995	0.9397587955831763	0.9397587955831977	0.09786439320829091	0.2644560669190695	0.7068234591801158	0.2043353708364977	8.128542438896344e-10	3.10782690325364e-10	7.253330128082207e-09	4.804676867004344e-09	-5.293494123269109e-10	-4.828306764616053e-09	1.875797078217215e-09
